<?xml version="1.0" encoding="UTF-8"?><svg xmlns="http://www.w3.org/2000/svg" viewBox="0 0 48 48"><g><circle cx="24" cy="24" r="24" style="fill:#4cc764; stroke-width:0px;"/><path d="m40.01,22.6c0-7.17-7.19-13-16.02-13S7.96,15.43,7.96,22.6c0,6.43,5.7,11.81,13.4,12.83.52.11,1.23.34,1.41.79.16.4.11,1.04.05,1.45,0,0-.19,1.13-.23,1.37-.07.4-.32,1.58,1.39.86,1.71-.72,9.23-5.43,12.59-9.3h0c2.32-2.55,3.43-5.13,3.43-8Z" style="fill:#fff; stroke-width:0px;"/><path d="m34.68,26.74c.17,0,.31-.14.31-.31v-1.14c0-.17-.14-.31-.31-.31h-3.06v-1.18h3.06c.17,0,.31-.14.31-.31v-1.14c0-.17-.14-.31-.31-.31h-3.06v-1.18h3.06c.17,0,.31-.14.31-.31v-1.14c0-.17-.14-.31-.31-.31h-4.5c-.17,0-.31.14-.31.31h0v6.99h0c0,.17.14.31.31.31h4.5Z" style="fill:#4cc764; stroke-width:0px;"/><path d="m18.02,26.74c.17,0,.31-.14.31-.31v-1.14c0-.17-.14-.31-.31-.31h-3.06v-5.55c0-.17-.14-.31-.31-.31h-1.14c-.17,0-.31.14-.31.31v6.99h0c0,.17.14.31.31.31h4.5Z" style="fill:#4cc764; stroke-width:0px;"/><rect x="19.29" y="19.14" width="1.75" height="7.6" rx=".31" ry=".31" style="fill:#4cc764; stroke-width:0px;"/><path d="m28.47,19.14h-1.14c-.17,0-.31.14-.31.31v4.15l-3.2-4.32s-.02-.02-.02-.03c0,0,0,0,0,0,0,0-.01-.01-.02-.02,0,0,0,0,0,0,0,0-.01,0-.02-.01,0,0,0,0,0,0,0,0-.01,0-.02-.01,0,0,0,0,0,0,0,0-.01,0-.02,0,0,0,0,0,0,0,0,0-.01,0-.02,0,0,0,0,0,0,0,0,0-.01,0-.02,0,0,0,0,0-.01,0,0,0-.01,0-.02,0,0,0,0,0-.01,0,0,0-.01,0-.02,0,0,0-.01,0-.02,0,0,0,0,0-.01,0h-1.13c-.17,0-.31.14-.31.31v6.99c0,.17.14.31.31.31h1.14c.17,0,.31-.14.31-.31v-4.15l3.2,4.33s.05.06.08.08c0,0,0,0,0,0,0,0,.01,0,.02.01,0,0,0,0,0,0,0,0,0,0,.01,0,0,0,0,0,.01,0,0,0,0,0,0,0,0,0,.01,0,.02,0,0,0,0,0,0,0,.03,0,.05.01.08.01h1.13c.17,0,.31-.14.31-.31v-6.99c0-.17-.14-.31-.31-.31Z" style="fill:#4cc764; stroke-width:0px;"/></g></svg>