<?xml version="1.0" encoding="UTF-8"?><svg id="_レイヤー_2" xmlns="http://www.w3.org/2000/svg" viewBox="0 0 46.72 11.14"><g id="_レイヤー_1-2"><path d="M10.43,3.82l-2.51-.05-.02.83c-.05,2.29-.8,4.6-3.96,5.95-.15-.2-.4-.44-.61-.61,3.07-1.26,3.68-3.38,3.72-5.35l.02-.84-3.87-.08-.06,2.99-.85-.02.06-2.99-2.35-.05.02-.82,2.35.05.05-2.6,1.15.1c-.01.12-.12.23-.3.25l-.05,2.28,3.87.08.06-2.76,1.15.1c-.01.11-.11.2-.3.22l-.05,2.46,2.51.05-.02.82Z" style="fill:#000; stroke-width:0px;"/><path d="M13.14,1.24c1.24.42,2.67,1.07,3.54,1.7l-.47.75c-.85-.63-2.25-1.29-3.47-1.74l.4-.71ZM12.92,9.55c4.28-1.23,7.16-3.56,8.67-6.85.25.21.52.37.77.51-1.57,3.26-4.54,5.75-8.64,7.02-.01.11-.09.23-.17.27l-.63-.95Z" style="fill:#000; stroke-width:0px;"/><path d="M24.79,1.96l7.63.16.07-.03.8.64s-.07.08-.15.1c-1.06,4.49-3.2,6.8-6.89,8.11-.13-.22-.36-.54-.53-.72,3.52-1.21,5.58-3.4,6.43-7.28l-7.39-.15.02-.83ZM33.97,0c.72.01,1.29.61,1.28,1.35-.01.72-.61,1.3-1.33,1.28-.73-.02-1.31-.61-1.29-1.33.02-.75.64-1.31,1.35-1.29ZM34.86,1.34c.01-.52-.39-.93-.89-.94s-.93.39-.94.9c0,.5.4.93.91.94.53.01.92-.43.93-.91Z" style="fill:#000; stroke-width:0px;"/><path d="M38.93,2.68c-.01.11-.12.18-.28.2-.14,3.22-.46,6.16-2.35,8.27-.19-.15-.47-.33-.71-.47,1.83-1.91,2.1-4.9,2.2-8.12l1.14.13ZM41.89,9.65c2.02-.93,3.35-2.65,4.09-4.74.18.16.53.37.73.48-.9,2.41-2.42,4.16-5,5.32-.04.1-.12.19-.21.24l-.61-.8.14-.18.18-8.8,1.11.08c-.01.11-.1.2-.27.22l-.17,8.18Z" style="fill:#000; stroke-width:0px;"/></g></svg>